#N canvas 231 13 715 976 10;
#X declare -lib mrpeach;
#X obj 188 185 tgl 15 0 empty empty empty 17 7 0 10 -262144 -1 -1 0
1;
#X obj 181 229 metro 250;
#X obj 175 270 counter 3;
#X obj 176 424 osc~;
#X obj 138 667 dac~;
#X obj 157 302 select 0 1 2 3;
#X obj 32 422 square~;
#X obj 132 571 *~;
#X floatatom 132 388 5 0 0 0 - - -;
#X obj 110 427 phasor~;
#X obj 421 14 import mrpeach;
#X obj 470 532 udpsend;
#X obj 424 485 packOSC;
#X msg 301 419 send /x1 \$1;
#X msg 517 212 disconnect;
#X msg 306 487 send /x2 \$1;
#X obj 252 552 vsl 15 128 0 1 0 0 empty empty empty 0 -9 0 10 -262144
-1 -1 0 1;
#X obj 99 351 220;
#X msg 390 61 connect 25.28.216.149 12000;
#X obj 173 354 55;
#X obj 213 353 770;
#X obj 139 350 990;
#X connect 0 0 1 0;
#X connect 1 0 2 0;
#X connect 2 0 5 0;
#X connect 3 0 7 0;
#X connect 5 0 17 0;
#X connect 5 1 21 0;
#X connect 5 2 19 0;
#X connect 5 3 20 0;
#X connect 7 0 4 0;
#X connect 7 0 4 1;
#X connect 8 0 3 0;
#X connect 8 0 6 0;
#X connect 8 0 9 0;
#X connect 8 0 15 0;
#X connect 9 0 7 0;
#X connect 12 0 11 0;
#X connect 13 0 12 0;
#X connect 14 0 11 0;
#X connect 15 0 12 0;
#X connect 16 0 7 1;
#X connect 16 0 13 0;
#X connect 17 0 8 0;
#X connect 18 0 11 0;
#X connect 19 0 8 0;
#X connect 20 0 8 0;
#X connect 21 0 8 0;
